<?xml version="1.0" encoding="UTF-8"?>
<svg id="Layer_1" xmlns="http://www.w3.org/2000/svg" version="1.1" viewBox="0 0 640 640">
  <!-- Generator: Adobe Illustrator 29.3.1, SVG Export Plug-In . SVG Version: 2.1.0 Build 151)  -->
  <defs>
    <style>
      .st0, .st1 {
        fill: #1a72c1;
      }

      .st2 {
        fill: #fff;
      }

      .st1 {
        fill-rule: evenodd;
      }
    </style>
  </defs>
  <rect class="st0" width="640" height="640" rx="62.4" ry="62.4"/>
  <path class="st2" d="M561.5,281.3c9.8,9.8,9.8,25.7,0,35.5,0,0,0,0,0,0-4.7,4.8-11.1,7.5-17.8,7.5-13.6,0-24.7-11-24.8-24.6,0,0,0-.2,0-.2,0-4,1-7.9,2.9-11.5l-154.6-154.6c-3.5,1.9-7.5,2.9-11.4,2.9-13.8,0-25-11-25.1-24.8,0-.1,0-.2,0-.3,0-6.7,2.8-13.1,7.5-17.8,4.6-4.7,10.9-7.5,17.5-7.5,6.7,0,13.1,2.7,17.7,7.5,7.8,7.7,9.6,19.7,4.4,29.4l154.1,154.1c3.6-1.8,7.6-2.8,11.6-2.9,6.7,0,13.1,2.6,17.8,7.3h0Z"/>
  <path class="st2" d="M237.7,517.8c9.9,9.8,9.9,25.8,0,35.7,0,0,0,0,0,0-4.6,4.7-10.9,7.4-17.5,7.5-13.8,0-25-11.1-25-24.8,0-.1,0-.3,0-.4,0-4,1-8,2.9-11.6l-86.6-86.2c-3.6,1.9-7.6,2.9-11.6,2.9-13.8,0-25-11.2-25-25,0-6.6,2.7-13,7.3-17.7,9.7-9.8,25.6-9.8,35.4,0,7.8,7.7,9.6,19.7,4.5,29.4l86.3,86.1c3.5-1.8,7.5-2.8,11.4-2.9,6.7-.1,13.1,2.4,17.9,7.1h0Z"/>
  <path class="st2" d="M308.6,515c9.8,10,9.6,26-.4,35.8-4.7,4.6-10.9,7.2-17.5,7.2-13.8,0-25-11.2-25-25,0-4.1,1-8.1,2.9-11.7l-154.3-154.1c-3.6,1.9-7.6,2.9-11.6,2.9-13.8.1-25.1-10.9-25.3-24.7,0-6.8,2.6-13.3,7.4-18,9.9-9.8,25.8-9.8,35.7,0,7.7,7.8,9.5,19.7,4.3,29.4h0l154.2,154c9.7-5.1,21.6-3.3,29.4,4.4h0Z"/>
  <path class="st2" d="M315.7,440.4c9.8,10,9.6,26-.4,35.8-4.7,4.6-10.9,7.2-17.5,7.2-13.7,0-24.9-11-24.9-24.8,0-.1,0-.3,0-.4,0-4,1-8,2.9-11.5l-86.8-86.3c-3.5,1.9-7.5,2.9-11.5,2.9-13.8,0-25-11.2-25-25,0-6.7,2.6-13,7.3-17.7,9.7-9.8,25.6-9.9,35.5-.2,7.8,7.7,9.7,19.6,4.6,29.4l85.8,86.2c3.6-1.8,7.5-2.8,11.5-2.9,6.9-.3,13.7,2.3,18.6,7.2h0Z"/>
  <path class="st2" d="M332.8,369c4.8,4.7,7.6,11.2,7.5,17.9,0,6.7-2.8,13-7.5,17.7-4.6,4.8-11,7.5-17.6,7.5-13.8.2-25-10.9-25.2-24.6,0-4.3,1-8.5,3.1-12.3l-32.3-32.3c-3.6,1.8-7.6,2.8-11.6,2.9-13.8,0-25-11.4-24.9-25.2,0-6.6,2.7-12.9,7.3-17.5,4.7-4.8,11-7.5,17.7-7.5,13.7-.4,25.1,10.4,25.5,24.1.1,4.3-.9,8.6-2.9,12.5l32.4,32.5c3.6-1.9,7.5-2.9,11.5-2.9,6.4.1,12.6,2.8,17.1,7.4Z"/>
  <path class="st2" d="M341.6,305.2c9.8,9.9,9.8,25.8,0,35.7-9.9,9.8-25.8,9.8-35.7,0-9.8-9.8-9.8-25.8,0-35.7,9.9-9.8,25.8-9.8,35.7,0Z"/>
  <path class="st2" d="M415.4,305.6c9.8,9.8,9.8,25.6,0,35.4,0,0,0,0,0,0-4.7,4.7-11,7.4-17.7,7.5-13.8,0-24.9-11.2-24.9-25,0-4.1,1-8.1,2.9-11.7l-32.4-32.4c-3.6,1.8-7.5,2.8-11.5,2.9-6.6,0-13-2.8-17.6-7.5-9.8-10-9.6-26,.4-35.8,4.7-4.6,10.9-7.2,17.5-7.2,13.8,0,25,11.1,25,24.8,0,.1,0,.2,0,.3,0,4.1-1,8-2.9,11.7l32.2,32.2c9.7-4.8,21.3-2.9,28.9,4.7h0Z"/>
  <path class="st2" d="M408.6,126.3c-9.8-9.8-9.8-25.8,0-35.6,4.6-4.8,10.9-7.5,17.5-7.5,6.8-.2,13.3,2.5,17.8,7.5,4.8,4.7,7.6,11.1,7.5,17.8,0,4-1,7.9-2.8,11.4l86.3,86.1c3.6-1.9,7.6-2.9,11.6-2.9,6.7,0,13,2.8,17.7,7.5,9.8,9.9,9.6,25.9-.3,35.7-4.7,4.6-10.9,7.2-17.5,7.2-13.6,0-24.8-10.9-24.9-24.5,0-.2,0-.4,0-.6,0-4.1.9-8.2,2.7-11.8l-86.2-86.3c-3.6,1.9-7.5,2.9-11.6,3h-.4c-6.6,0-12.9-2.5-17.6-7.1Z"/>
  <path class="st2" d="M486.9,288c9.8,9.8,9.8,25.6,0,35.4,0,0,0,0,0,0-4.7,4.7-11.1,7.4-17.8,7.5-6.6,0-13-2.8-17.6-7.5-4.9-4.7-7.6-11.2-7.5-18,0-4,1-8,2.9-11.5l-86-85.9c-3.5,1.8-7.5,2.8-11.4,2.9-6.6,0-13-2.8-17.6-7.5-9.5-10.2-9-26.1,1.1-35.7,9.7-9.1,24.8-9.1,34.5,0,4.8,4.7,7.5,11.1,7.5,17.8,0,4-1,8-2.9,11.6l85.4,86.5c3.6-1.8,7.6-2.8,11.6-2.9,6.7,0,13.1,2.6,17.8,7.3h0Z"/>
  <g>
    <rect class="st2" x="413.5" y="402.7" width="161.4" height="161.4" rx="28.2" ry="28.2"/>
    <path class="st1" d="M513.4,531.1v15.8c2.6,1.3,5.6,2.3,9.1,3s7.2,1,11.1,1,7.4-.4,10.8-1.1c3.4-.7,6.4-1.9,9-3.6,2.6-1.7,4.6-3.8,6.1-6.5s2.2-6,2.2-9.9-.4-5.4-1.3-7.5-2.1-4.1-3.7-5.7c-1.6-1.7-3.5-3.2-5.8-4.5s-4.8-2.6-7.6-3.8c-2.1-.9-3.9-1.7-5.6-2.5-1.6-.8-3-1.6-4.2-2.5-1.2-.8-2-1.7-2.7-2.7-.6-.9-.9-2-.9-3.2s.3-2.1.8-2.9,1.3-1.6,2.4-2.2c1-.6,2.3-1.1,3.7-1.5,1.5-.3,3.1-.5,4.9-.5s2.7,0,4.2.3c1.5.2,2.9.5,4.4.9,1.5.4,2.9.9,4.3,1.6,1.4.6,2.7,1.3,3.9,2.2v-14.7c-2.4-.9-5-1.6-7.9-2s-6.1-.7-9.8-.7-7.3.4-10.7,1.2-6.3,2.1-8.9,3.8c-2.5,1.7-4.6,3.9-6,6.5-1.5,2.6-2.2,5.8-2.2,9.5s1.4,8.7,4.1,12c2.7,3.3,6.8,6.1,12.4,8.4,2.2.9,4.2,1.8,6.1,2.6s3.5,1.7,4.9,2.7c1.4.9,2.4,1.9,3.2,3,.8,1.1,1.2,2.3,1.2,3.7s-.2,2-.7,2.8-1.2,1.6-2.2,2.3-2.3,1.1-3.7,1.5c-1.5.4-3.2.5-5.3.5-3.4,0-6.8-.6-10.2-1.8-3.4-1.2-6.5-3-9.3-5.4h0ZM486.9,492.3h20.2v-13h-56.4v13h20.1v57.7h16v-57.7Z"/>
  </g>
  <g>
    <path class="st2" d="M82.8,104.4h-18.7v-13.2h53.5v13.2h-19v56.4h-15.8v-56.4Z"/>
    <path class="st2" d="M114.8,126.9c0-7.4-.2-12.3-.4-16.6h13.5l.5,9.3h.4c2.6-7.3,8.8-10.4,13.6-10.4s2.2,0,3.3.2v14.8c-1.1-.2-2.5-.4-4.2-.4-5.8,0-9.7,3.1-10.7,8-.2,1-.3,2.3-.3,3.5v25.6h-15.7v-33.9Z"/>
    <path class="st2" d="M176.4,160.8l-.9-5.1h-.3c-3.3,4-8.5,6.2-14.5,6.2-10.2,0-16.3-7.4-16.3-15.5,0-13.1,11.8-19.4,29.7-19.3v-.7c0-2.7-1.4-6.5-9.2-6.5s-10.6,1.8-14,3.8l-2.9-10.1c3.5-2,10.4-4.4,19.6-4.4,16.8,0,22.2,9.9,22.2,21.8v17.6c0,4.9.2,9.5.7,12.3h-14.2ZM174.6,137c-8.3-.1-14.7,1.9-14.7,8s2.7,6,6.2,6,7.1-2.6,8.2-5.8c.2-.8.3-1.8.3-2.7v-5.5Z"/>
    <path class="st2" d="M213.3,96.2c0,4.3-3.3,7.9-8.5,7.9s-8.3-3.5-8.2-7.9c-.1-4.5,3.2-8,8.3-8s8.3,3.4,8.4,8ZM197.1,160.8v-50.5h15.7v50.5h-15.7Z"/>
    <path class="st2" d="M237.8,95.8v14.5h11.3v11.6h-11.3v18.3c0,6.1,1.4,8.9,6.2,8.9s3.5-.2,4.6-.4v11.9c-2,.8-5.7,1.3-10.1,1.3s-9.3-1.8-11.8-4.3c-2.9-3-4.3-7.9-4.3-15v-20.7h-6.7v-11.6h6.7v-11l15.4-3.5Z"/>
    <path class="st2" d="M252.9,147.1c2.9,1.8,8.9,3.8,13.5,3.8s6.7-1.7,6.7-4.2-1.5-3.8-7.4-5.8c-10.4-3.5-14.5-9.2-14.4-15.2,0-9.4,8.1-16.5,20.6-16.5s11.2,1.3,14.3,2.9l-2.8,10.9c-2.3-1.2-6.6-2.9-11-2.9s-6,1.5-6,4.1,2,3.6,8.2,5.8c9.6,3.3,13.6,8.2,13.7,15.6,0,9.4-7.4,16.3-21.9,16.3s-12.5-1.4-16.3-3.5l2.8-11.3Z"/>
  </g>
</svg>